<?xml version="1.0" standalone="no"?>
<!DOCTYPE svg PUBLIC "-//W3C//DTD SVG 20010904//EN"
 "http://www.w3.org/TR/2001/REC-SVG-20010904/DTD/svg10.dtd">
<svg version="1.0" xmlns="http://www.w3.org/2000/svg" width="128.000000pt" height="128.000000pt" viewBox="0 0 128.000000 128.000000" preserveAspectRatio="xMidYMid meet">
<g transform="translate(0.000000,128.000000) scale(0.100000,-0.100000)"
fill="#000000" stroke="none">
<path d="M30 610 l0 -500 105 0 105 0 0 34 c0 32 3 35 33 38 29 3 32 6 35 41
l3 37 70 0 69 0 0 35 c0 33 2 35 35 35 33 0 35 2 35 35 0 33 2 35 35 35 33 0
35 2 35 35 0 34 1 35 40 35 39 0 40 -1 40 -35 0 -33 2 -35 35 -35 33 0 35 -2
35 -35 0 -33 2 -35 35 -35 33 0 35 -2 35 -35 l0 -35 69 0 70 0 3 -37 c3 -35 6
-38 36 -41 29 -3 32 -6 32 -38 l0 -34 105 0 105 0 0 500 0 500 -89 0 -90 0 -3
-32 c-3 -32 -5 -33 -50 -36 -47 -3 -48 -4 -48 -38 l0 -34 -70 0 -70 0 0 -35
c0 -33 -2 -35 -35 -35 -33 0 -35 -2 -35 -35 0 -33 -2 -35 -34 -35 -33 0 -35
-2 -38 -37 -3 -36 -5 -38 -38 -38 -33 0 -35 2 -38 38 -3 35 -5 37 -38 37 -32
0 -34 2 -34 35 0 33 -2 35 -35 35 -33 0 -35 2 -35 35 l0 35 -60 0 -60 0 0 35
c0 35 0 35 -45 35 -45 0 -45 0 -45 35 l0 35 -105 0 -105 0 0 -500z m210 255
c0 -33 2 -35 35 -35 33 0 35 -2 35 -35 0 -33 2 -35 35 -35 34 0 35 -1 35 -40
0 -39 1 -40 35 -40 l35 0 0 -70 0 -70 -35 0 c-33 0 -35 -2 -35 -35 0 -33 -2
-35 -35 -35 -33 0 -35 -2 -35 -35 0 -33 -2 -35 -35 -35 -33 0 -35 -2 -35 -35
0 -33 -2 -35 -35 -35 l-35 0 0 285 0 285 35 0 c33 0 35 -2 35 -35z m850 -250
l0 -285 -35 0 c-33 0 -35 2 -35 35 0 33 -2 35 -35 35 -33 0 -35 2 -35 35 0 33
-2 35 -35 35 -33 0 -35 2 -35 35 0 33 -2 35 -35 35 l-35 0 0 70 0 70 35 0 c34
0 35 1 35 40 0 39 1 40 35 40 33 0 35 2 35 35 0 33 2 35 35 35 33 0 35 2 35
35 0 33 2 35 35 35 l35 0 0 -285z"/>
</g>
</svg>
